<svg xmlns="http://www.w3.org/2000/svg" version="1.1" xmlns:xlink="http://www.w3.org/1999/xlink" xmlns:svgjs="http://svgjs.dev/svgjs" width="2000" height="1500" viewBox="0 0 2000 1500"><rect width="2000" height="1500" fill="#ffffff"></rect><g transform="matrix(0.75,0,0,0.75,249.090909090909,511.1030670657626)"><svg viewBox="0 0 396 126" data-background-color="#ffffff" preserveAspectRatio="xMidYMid meet" height="636" width="2000" xmlns="http://www.w3.org/2000/svg" xmlns:xlink="http://www.w3.org/1999/xlink"><g id="tight-bounds" transform="matrix(1,0,0,1,0.2400000000000091,0.10485020904383191)"><svg viewBox="0 0 395.52 125.79029958191232" height="125.79029958191232" width="395.52"><g><svg viewBox="0 0 598.3125336778173 190.28598517128248" height="125.79029958191232" width="395.52"><g transform="matrix(1,0,0,1,0,49.24671058581431)"><svg viewBox="0 0 395.52 91.79256399965385" height="91.79256399965385" width="395.52"><g id="textblocktransform"><svg viewBox="0 0 395.52 91.79256399965385" height="91.79256399965385" width="395.52" id="textblock"><g><svg viewBox="0 0 395.52 51.64409625069949" height="51.64409625069949" width="395.52"><g transform="matrix(1,0,0,1,0,0)"><svg width="395.52" viewBox="3.5 -35 268.03 35" height="51.64409625069949" data-palette-color="#233565"><g class="wordmark-text-0" data-fill-palette-color="primary" id="text-0"><path d="M10.75 0L4.75 0Q4.25 0 3.88-0.38 3.5-0.75 3.5-1.25L3.5-1.25 3.5-33.75Q3.5-34.3 3.88-34.65 4.25-35 4.75-35L4.75-35 10.15-35Q11-35 11.4-34.58 11.8-34.15 11.9-33.9L11.9-33.9 20.7-18.15 29.5-33.9Q29.65-34.15 30.03-34.58 30.4-35 31.25-35L31.25-35 36.6-35Q37.15-35 37.52-34.65 37.9-34.3 37.9-33.75L37.9-33.75 37.9-1.25Q37.9-0.75 37.52-0.38 37.15 0 36.6 0L36.6 0 30.65 0Q30.1 0 29.73-0.38 29.35-0.75 29.35-1.25L29.35-1.25 29.35-20 23.75-9.55Q23.5-9.1 23.1-8.75 22.7-8.4 22-8.4L22-8.4 19.4-8.4Q18.7-8.4 18.3-8.75 17.9-9.1 17.65-9.55L17.65-9.55 12-20 12-1.25Q12-0.75 11.65-0.38 11.3 0 10.75 0L10.75 0ZM52.85 0L46.15 0Q45.6 0 45.25-0.38 44.9-0.75 44.9-1.25L44.9-1.25 44.9-33.75Q44.9-34.3 45.25-34.65 45.6-35 46.15-35L46.15-35 52.85-35Q53.4-35 53.77-34.65 54.15-34.3 54.15-33.75L54.15-33.75 54.15-1.25Q54.15-0.75 53.77-0.38 53.4 0 52.85 0L52.85 0ZM68.35 0L62.35 0Q61.8 0 61.45-0.38 61.1-0.75 61.1-1.25L61.1-1.25 61.1-33.75Q61.1-34.3 61.45-34.65 61.8-35 62.35-35L62.35-35 67.65-35Q68.5-35 68.87-34.63 69.25-34.25 69.35-34.05L69.35-34.05 81.55-14.85 81.55-33.75Q81.55-34.3 81.9-34.65 82.25-35 82.8-35L82.8-35 88.8-35Q89.35-35 89.7-34.65 90.05-34.3 90.05-33.75L90.05-33.75 90.05-1.3Q90.05-0.75 89.7-0.38 89.35 0 88.8 0L88.8 0 83.45 0Q82.65 0 82.27-0.4 81.9-0.8 81.8-0.95L81.8-0.95 69.6-19.45 69.6-1.25Q69.6-0.75 69.25-0.38 68.9 0 68.35 0L68.35 0ZM111.54 0L98.29 0Q97.74 0 97.39-0.38 97.04-0.75 97.04-1.25L97.04-1.25 97.04-33.75Q97.04-34.3 97.39-34.65 97.74-35 98.29-35L98.29-35 111.29-35Q116.19-35 119.64-33.43 123.09-31.85 124.94-28.83 126.79-25.8 126.94-21.35L126.94-21.35Q126.99-19.15 126.99-17.5 126.99-15.85 126.94-13.7L126.94-13.7Q126.74-9.05 124.97-6 123.19-2.95 119.82-1.48 116.44 0 111.54 0L111.54 0ZM106.04-27.8L106.04-7.2 111.29-7.2Q113.44-7.2 114.87-7.88 116.29-8.55 117.02-10 117.74-11.45 117.79-13.8L117.79-13.8Q117.89-15.25 117.92-16.4 117.94-17.55 117.92-18.7 117.89-19.85 117.79-21.25L117.79-21.25Q117.69-24.65 116.02-26.23 114.34-27.8 111.04-27.8L111.04-27.8 106.04-27.8ZM140.09 0L134.09 0Q133.59 0 133.22-0.38 132.84-0.75 132.84-1.25L132.84-1.25 132.84-33.75Q132.84-34.3 133.22-34.65 133.59-35 134.09-35L134.09-35 139.49-35Q140.34-35 140.74-34.58 141.14-34.15 141.24-33.9L141.24-33.9 150.04-18.15 158.84-33.9Q158.99-34.15 159.37-34.58 159.74-35 160.59-35L160.59-35 165.94-35Q166.49-35 166.87-34.65 167.24-34.3 167.24-33.75L167.24-33.75 167.24-1.25Q167.24-0.75 166.87-0.38 166.49 0 165.94 0L165.94 0 159.99 0Q159.44 0 159.07-0.38 158.69-0.75 158.69-1.25L158.69-1.25 158.69-20 153.09-9.55Q152.84-9.1 152.44-8.75 152.04-8.4 151.34-8.4L151.34-8.4 148.74-8.4Q148.04-8.4 147.64-8.75 147.24-9.1 146.99-9.55L146.99-9.55 141.34-20 141.34-1.25Q141.34-0.75 140.99-0.38 140.64 0 140.09 0L140.09 0ZM178.39 0L172.24 0Q171.84 0 171.51-0.33 171.19-0.65 171.19-1.05L171.19-1.05Q171.19-1.3 171.24-1.5L171.24-1.5 182.99-33.6Q183.14-34.15 183.61-34.58 184.09-35 184.94-35L184.94-35 192.34-35Q193.19-35 193.66-34.58 194.14-34.15 194.29-33.6L194.29-33.6 205.99-1.5Q206.09-1.3 206.09-1.05L206.09-1.05Q206.09-0.65 205.76-0.33 205.44 0 204.99 0L204.99 0 198.84 0Q198.09 0 197.71-0.38 197.34-0.75 197.24-1.05L197.24-1.05 195.29-6.15 181.94-6.15 180.04-1.05Q179.94-0.75 179.59-0.38 179.24 0 178.39 0L178.39 0ZM188.64-26.55L183.99-13.35 193.29-13.35 188.64-26.55ZM217.74 0L211.29 0Q210.74 0 210.39-0.38 210.04-0.75 210.04-1.25L210.04-1.25 210.04-33.75Q210.04-34.3 210.39-34.65 210.74-35 211.29-35L211.29-35 224.89-35Q231.39-35 235.09-32.02 238.79-29.05 238.79-23.6L238.79-23.6Q238.79-20.05 237.09-17.6 235.39-15.15 232.59-13.9L232.59-13.9 239.44-1.6Q239.59-1.3 239.59-1.05L239.59-1.05Q239.59-0.65 239.26-0.33 238.94 0 238.54 0L238.54 0 231.89 0Q230.94 0 230.49-0.48 230.04-0.95 229.84-1.35L229.84-1.35 224.14-12.35 219.04-12.35 219.04-1.25Q219.04-0.75 218.66-0.38 218.29 0 217.74 0L217.74 0ZM219.04-28.05L219.04-19.45 224.79-19.45Q227.14-19.45 228.31-20.6 229.49-21.75 229.49-23.7L229.49-23.7Q229.49-25.65 228.36-26.85 227.24-28.05 224.79-28.05L224.79-28.05 219.04-28.05ZM260.13 0L253.53 0Q252.98 0 252.63-0.38 252.28-0.75 252.28-1.25L252.28-1.25 252.28-27.15 243.38-27.15Q242.83-27.15 242.48-27.53 242.13-27.9 242.13-28.4L242.13-28.4 242.13-33.75Q242.13-34.3 242.48-34.65 242.83-35 243.38-35L243.38-35 270.28-35Q270.83-35 271.18-34.65 271.53-34.3 271.53-33.75L271.53-33.75 271.53-28.4Q271.53-27.9 271.18-27.53 270.83-27.15 270.28-27.15L270.28-27.15 261.38-27.15 261.38-1.25Q261.38-0.75 261.03-0.38 260.68 0 260.13 0L260.13 0Z" fill="#233565" data-fill-palette-color="primary"></path></g></svg></g></svg></g><g transform="matrix(1,0,0,1,19.77600000000001,63.83602791717962)"><svg viewBox="0 0 375.74399999999997 27.956536082474226" height="27.956536082474226" width="375.74399999999997"><g transform="matrix(1,0,0,1,0,0)"><svg width="375.74399999999997" viewBox="4.65 -42.3 737.14 54.849999999999994" height="27.956536082474226" data-palette-color="#233565"><path d="M17.65-37.9Q27.5-37.9 32.52-33.08 37.55-28.25 37.55-18.9L37.55-18.9Q37.55-9.5 32.55-4.75 27.55 0 17.65 0L17.65 0 4.65 0 4.65-37.9 17.65-37.9ZM30.55-19.05Q30.55-25.7 27.33-28.83 24.1-31.95 17.65-31.95L17.65-31.95 11.6-31.95 11.6-5.95 17.65-5.95Q24.2-5.95 27.38-9.08 30.55-12.2 30.55-19.05L30.55-19.05ZM49.25-12.45Q50.05-4.85 57.65-4.85L57.65-4.85Q59.6-4.85 61.45-5.35 63.3-5.85 65.6-6.95L65.6-6.95 67.4-1.65Q65-0.3 62.5 0.28 60 0.85 56.85 0.85L56.85 0.85Q52.2 0.85 48.9-1.03 45.6-2.9 43.92-6.25 42.25-9.6 42.25-14.05L42.25-14.05Q42.25-18.7 44-22.03 45.75-25.35 48.75-27.05 51.75-28.75 55.45-28.75L55.45-28.75Q61.3-28.75 64.62-25.28 67.95-21.8 68-15.1L68-15.1 68-12.45 49.25-12.45ZM55.45-23.05Q50.55-23.05 49.5-17.65L49.5-17.65 60.95-17.65Q60.7-20.45 59.35-21.75 58-23.05 55.45-23.05L55.45-23.05ZM92-27.95L98.9-27.95 89.05 0.45 80.65 0.45 70.8-27.95 77.7-27.95 84.85-5.95 92-27.95ZM109.19-12.45Q109.99-4.85 117.59-4.85L117.59-4.85Q119.54-4.85 121.39-5.35 123.24-5.85 125.54-6.95L125.54-6.95 127.34-1.65Q124.94-0.3 122.44 0.28 119.94 0.85 116.79 0.85L116.79 0.85Q112.14 0.85 108.84-1.03 105.54-2.9 103.87-6.25 102.19-9.6 102.19-14.05L102.19-14.05Q102.19-18.7 103.94-22.03 105.69-25.35 108.69-27.05 111.69-28.75 115.39-28.75L115.39-28.75Q121.24-28.75 124.57-25.28 127.89-21.8 127.94-15.1L127.94-15.1 127.94-12.45 109.19-12.45ZM115.39-23.05Q110.49-23.05 109.44-17.65L109.44-17.65 120.89-17.65Q120.64-20.45 119.29-21.75 117.94-23.05 115.39-23.05L115.39-23.05ZM141.64 0.65Q137.54 0.65 135.64-1.07 133.74-2.8 133.74-6.4L133.74-6.4 133.74-42.3 140.44-42.3 140.44-8.6Q140.44-6.8 141.04-6.1 141.64-5.4 143.19-5.4L143.19-5.4Q144.74-5.4 145.94-5.7L145.94-5.7 145.94 0.1Q143.59 0.65 141.64 0.65L141.64 0.65ZM163.89 0.85Q159.24 0.85 155.99-1.1 152.74-3.05 151.11-6.43 149.49-9.8 149.49-14L149.49-14Q149.49-18.15 151.11-21.5 152.74-24.85 155.99-26.8 159.24-28.75 163.89-28.75L163.89-28.75Q168.49-28.75 171.71-26.8 174.94-24.85 176.56-21.5 178.19-18.15 178.19-14L178.19-14Q178.19-9.8 176.56-6.43 174.94-3.05 171.71-1.1 168.49 0.85 163.89 0.85L163.89 0.85ZM163.89-5Q167.44-5 169.34-7.43 171.24-9.85 171.24-14L171.24-14Q171.24-18.15 169.34-20.55 167.44-22.95 163.89-22.95L163.89-22.95Q160.29-22.95 158.36-20.55 156.44-18.15 156.44-14L156.44-14Q156.44-9.85 158.36-7.43 160.29-5 163.89-5L163.89-5ZM198.99-28.75Q202.69-28.75 205.56-27.1 208.44-25.45 210.04-22.13 211.64-18.8 211.64-13.95L211.64-13.95Q211.64-9.1 210.04-5.78 208.44-2.45 205.56-0.8 202.69 0.85 198.99 0.85L198.99 0.85Q194.99 0.85 191.19-2.2L191.19-2.2 191.19 11.7 184.49 11.7 184.49-27.95 191.19-27.95 191.19-25.75Q194.94-28.75 198.99-28.75L198.99-28.75ZM197.74-5.2Q201.14-5.2 202.89-7.43 204.64-9.65 204.64-13.95L204.64-13.95Q204.64-18.25 202.89-20.5 201.14-22.75 197.74-22.75L197.74-22.75Q194.49-22.75 191.19-20.2L191.19-20.2 191.19-7.75Q194.39-5.2 197.74-5.2L197.74-5.2ZM223.18-12.45Q223.98-4.85 231.58-4.85L231.58-4.85Q233.53-4.85 235.38-5.35 237.23-5.85 239.53-6.95L239.53-6.95 241.33-1.65Q238.93-0.3 236.43 0.28 233.93 0.85 230.78 0.85L230.78 0.85Q226.13 0.85 222.83-1.03 219.53-2.9 217.86-6.25 216.18-9.6 216.18-14.05L216.18-14.05Q216.18-18.7 217.93-22.03 219.68-25.35 222.68-27.05 225.68-28.75 229.38-28.75L229.38-28.75Q235.23-28.75 238.56-25.28 241.88-21.8 241.93-15.1L241.93-15.1 241.93-12.45 223.18-12.45ZM229.38-23.05Q224.48-23.05 223.43-17.65L223.43-17.65 234.88-17.65Q234.63-20.45 233.28-21.75 231.93-23.05 229.38-23.05L229.38-23.05ZM266.43-42.3L273.13-42.3 273.13 0 266.43 0 266.43-2.2Q262.63 0.85 258.63 0.85L258.63 0.85Q252.93 0.85 249.48-2.95 246.03-6.75 246.03-14L246.03-14Q246.03-18.8 247.63-22.13 249.23-25.45 252.08-27.1 254.93-28.75 258.63-28.75L258.63-28.75Q262.68-28.75 266.43-25.75L266.43-25.75 266.43-42.3ZM259.93-5.2Q263.23-5.2 266.43-7.75L266.43-7.75 266.43-20.2Q263.13-22.75 259.93-22.75L259.93-22.75Q256.48-22.75 254.73-20.5 252.98-18.25 252.98-14L252.98-14Q252.98-9.65 254.73-7.43 256.48-5.2 259.93-5.2L259.93-5.2ZM314.73-19.25Q317.98-18.2 319.75-15.95 321.52-13.7 321.52-10.45L321.52-10.45Q321.52-5.2 318.25-2.6 314.98 0 307.27 0L307.27 0 292.77 0 292.77-37.9 307.27-37.9Q314.23-37.9 317.13-35.35 320.02-32.8 320.02-27.75L320.02-27.75Q320.02-24.7 318.75-22.58 317.48-20.45 314.73-19.25L314.73-19.25ZM299.73-32.3L299.73-21.8 307.27-21.8Q312.98-21.8 312.98-27.15L312.98-27.15Q312.98-29.9 311.68-31.1 310.38-32.3 307.27-32.3L307.27-32.3 299.73-32.3ZM314.48-10.95Q314.48-13.7 312.68-14.95 310.88-16.2 307.27-16.2L307.27-16.2 299.73-16.2 299.73-5.6 307.27-5.6Q311.23-5.6 312.85-6.88 314.48-8.15 314.48-10.95L314.48-10.95ZM345.67-27.95L352.22-27.95 340.47 4.45Q339.32 7.65 338.05 9.38 336.77 11.1 335.05 11.83 333.32 12.55 330.67 12.55L330.67 12.55Q328.52 12.55 326.77 12L326.77 12 326.77 6.15Q328.02 6.5 329.67 6.5L329.67 6.5Q331.57 6.5 332.65 5.63 333.72 4.75 334.67 2.25L334.67 2.25 335.52 0 325.47-27.95 332.37-27.95 338.77-9.05 345.67-27.95ZM398.47-37.9L406.32-37.9 406.32 0 399.37 0 399.37-27.85 389.32-13.45 385.77-13.45 375.82-27.75 375.82 0 368.87 0 368.87-37.9 376.77-37.9 387.62-22.2 398.47-37.9ZM424.72-27.95Q429.67-27.95 432.24-26.48 434.82-25 435.67-22.53 436.52-20.05 436.52-16.3L436.52-16.3 436.52 0 429.82 0 429.82-2.55Q427.97-0.85 426.19-0.1 424.42 0.65 422.32 0.65L422.32 0.65Q417.92 0.65 415.24-1.88 412.57-4.4 412.57-8.8L412.57-8.8Q412.57-13.3 415.34-15.78 418.12-18.25 422.97-18.25L422.97-18.25Q426.92-18.25 429.82-16.7L429.82-16.7Q429.77-18.6 429.34-19.75 428.92-20.9 427.67-21.53 426.42-22.15 423.97-22.15L423.97-22.15 419.27-22.15 419.27-27.95 424.72-27.95ZM423.52-4.7Q426.57-4.7 429.82-7.5L429.82-7.5 429.82-11.9Q427.17-13.25 424.37-13.25L424.37-13.25Q422.17-13.25 420.77-12.23 419.37-11.2 419.37-8.9L419.37-8.9Q419.37-6.65 420.54-5.68 421.72-4.7 423.52-4.7L423.52-4.7ZM455.96 0.85Q449.21 0.8 445.64-3.13 442.06-7.05 442.06-14.05L442.06-14.05Q442.06-20.95 445.64-24.83 449.21-28.7 455.96-28.75L455.96-28.75Q458.36-28.75 460.09-28.45 461.81-28.15 463.66-27.4L463.66-27.4 463.66-21.15Q461.81-22.05 460.19-22.4 458.56-22.75 456.61-22.75L456.61-22.75Q449.01-22.7 449.01-14.1L449.01-14.1Q449.01-5.2 456.46-5.2L456.46-5.2Q460.06-5.2 463.81-7.35L463.81-7.35 465.76-1.75Q461.26 0.85 455.96 0.85L455.96 0.85ZM485.91-28.55Q491.31-28.55 493.94-25.8 496.56-23.05 496.56-16.85L496.56-16.85 496.56 0 489.86 0 489.86-16.85Q489.86-19.8 488.69-21.18 487.51-22.55 484.61-22.55L484.61-22.55Q481.21-22.55 477.76-19.6L477.76-19.6 477.76 0 471.06 0 471.06-42.3 477.76-42.3 477.76-25.35Q481.56-28.55 485.91-28.55L485.91-28.55ZM504.31-32.8L504.31-40.35 511.01-40.35 511.01-32.8 504.31-32.8ZM504.31 0L504.31-27.95 511.01-27.95 511.01 0 504.31 0ZM533.86-28.55Q539.25-28.55 541.88-25.8 544.5-23.05 544.5-16.85L544.5-16.85 544.5 0 537.8 0 537.8-16.85Q537.8-19.8 536.63-21.18 535.46-22.55 532.55-22.55L532.55-22.55Q529.15-22.55 525.71-19.6L525.71-19.6 525.71 0 519 0 519-27.95 525.71-27.95 525.71-25.35Q529.5-28.55 533.86-28.55L533.86-28.55ZM557.55-12.45Q558.35-4.85 565.95-4.85L565.95-4.85Q567.9-4.85 569.75-5.35 571.6-5.85 573.9-6.95L573.9-6.95 575.7-1.65Q573.3-0.3 570.8 0.28 568.3 0.85 565.15 0.85L565.15 0.85Q560.5 0.85 557.2-1.03 553.9-2.9 552.23-6.25 550.55-9.6 550.55-14.05L550.55-14.05Q550.55-18.7 552.3-22.03 554.05-25.35 557.05-27.05 560.05-28.75 563.75-28.75L563.75-28.75Q569.6-28.75 572.93-25.28 576.25-21.8 576.3-15.1L576.3-15.1 576.3-12.45 557.55-12.45ZM563.75-23.05Q558.85-23.05 557.8-17.65L557.8-17.65 569.25-17.65Q569-20.45 567.65-21.75 566.3-23.05 563.75-23.05L563.75-23.05ZM623.35-37.9L631.2-37.9 631.2 0 624.25 0 624.25-27.85 614.2-13.45 610.65-13.45 600.7-27.75 600.7 0 593.75 0 593.75-37.9 601.65-37.9 612.5-22.2 623.35-37.9ZM639.84-32.8L639.84-40.35 646.54-40.35 646.54-32.8 639.84-32.8ZM639.84 0L639.84-27.95 646.54-27.95 646.54 0 639.84 0ZM669.39-28.55Q674.79-28.55 677.42-25.8 680.04-23.05 680.04-16.85L680.04-16.85 680.04 0 673.34 0 673.34-16.85Q673.34-19.8 672.17-21.18 670.99-22.55 668.09-22.55L668.09-22.55Q664.69-22.55 661.24-19.6L661.24-19.6 661.24 0 654.54 0 654.54-27.95 661.24-27.95 661.24-25.35Q665.04-28.55 669.39-28.55L669.39-28.55ZM706.49-42.3L713.19-42.3 713.19 0 706.49 0 706.49-2.2Q702.69 0.85 698.69 0.85L698.69 0.85Q692.99 0.85 689.54-2.95 686.09-6.75 686.09-14L686.09-14Q686.09-18.8 687.69-22.13 689.29-25.45 692.14-27.1 694.99-28.75 698.69-28.75L698.69-28.75Q702.74-28.75 706.49-25.75L706.49-25.75 706.49-42.3ZM699.99-5.2Q703.29-5.2 706.49-7.75L706.49-7.75 706.49-20.2Q703.19-22.75 699.99-22.75L699.99-22.75Q696.54-22.75 694.79-20.5 693.04-18.25 693.04-14L693.04-14Q693.04-9.65 694.79-7.43 696.54-5.2 699.99-5.2L699.99-5.2ZM730.74 0.85Q727.49 0.85 724.94 0.3 722.39-0.25 719.64-1.55L719.64-1.55 719.64-7.7Q722.29-6.2 725.01-5.53 727.74-4.85 730.74-4.85L730.74-4.85Q734.99-4.85 734.99-7.9L734.99-7.9Q734.99-9.2 734.26-9.83 733.54-10.45 731.99-10.85L731.99-10.85 727.89-11.75Q724.04-12.6 722.06-14.53 720.09-16.45 720.09-20.05L720.09-20.05Q720.09-28.75 730.94-28.75L730.94-28.75Q735.69-28.75 740.49-26.95L740.49-26.95 740.49-21.05Q738.64-21.95 736.24-22.5 733.84-23.05 731.24-23.05L731.24-23.05Q726.89-23.05 726.89-20.45L726.89-20.45Q726.89-19.25 727.61-18.7 728.34-18.15 729.79-17.8L729.79-17.8 733.84-16.9Q737.89-15.95 739.84-14.05 741.79-12.15 741.79-8.2L741.79-8.2Q741.79-3.75 738.79-1.45 735.79 0.85 730.74 0.85L730.74 0.85Z" opacity="1" transform="matrix(1,0,0,1,0,0)" fill="#233565" class="slogan-text-1" data-fill-palette-color="secondary" id="text-1"></path></svg></g></svg></g></svg></g></svg></g><g transform="matrix(1,0,0,1,407.7119316664801,0)"><svg viewBox="0 0 190.60060201133723 190.28598517128248" height="190.28598517128248" width="190.60060201133723"><g><svg xmlns="http://www.w3.org/2000/svg" xmlns:xlink="http://www.w3.org/1999/xlink" version="1.1" x="0" y="0" viewBox="0 0.2049999999999983 99.96000000000001 99.795" enable-background="new 0 0 100 100" xml:space="preserve" height="190.28598517128248" width="190.60060201133723" class="icon-icon-0" data-fill-palette-color="accent" id="icon-0"><g fill="#8bd8bc" data-fill-palette-color="accent"><circle cx="49.98" cy="50.02" r="8.3" fill="#8bd8bc" data-fill-palette-color="accent"></circle><path d="M57.492 7.246c0 3.889-3.152 26.404-7.041 26.404-3.888 0-7.041-22.516-7.041-26.404s3.153-7.041 7.041-7.041C54.34 0.205 57.492 3.357 57.492 7.246z" fill="#8bd8bc" data-fill-palette-color="accent"></path><path d="M43.41 92.958c0-3.889 3.153-26.403 7.041-26.403 3.889 0 7.041 22.515 7.041 26.403S54.34 100 50.451 100C46.563 100 43.41 96.847 43.41 92.958z" fill="#8bd8bc" data-fill-palette-color="accent"></path><path d="M85.757 24.872c-2.791 2.707-21.142 16.131-23.849 13.341-2.708-2.79 11.248-20.736 14.038-23.445 2.79-2.707 7.249-2.643 9.956 0.148C88.612 17.705 88.546 22.163 85.757 24.872z" fill="#8bd8bc" data-fill-palette-color="accent"></path><path d="M14.773 75.181c2.79-2.708 21.14-16.129 23.849-13.342 2.707 2.792-11.249 20.736-14.039 23.445-2.789 2.71-7.247 2.645-9.955-0.146C11.919 82.348 11.985 77.892 14.773 75.181z" fill="#8bd8bc" data-fill-palette-color="accent"></path><path d="M74.163 86.315c-2.63-2.866-15.548-21.574-12.685-24.207C64.342 59.479 81.9 73.92 84.53 76.785c2.633 2.861 2.445 7.316-0.416 9.947C81.25 89.364 76.797 89.177 74.163 86.315z" fill="#8bd8bc" data-fill-palette-color="accent"></path><path d="M24.717 14.668c2.716 2.781 16.189 21.094 13.407 23.809-2.781 2.717-20.767-11.188-23.483-13.973-2.717-2.779-2.664-7.239 0.12-9.957C17.542 11.832 22.002 11.885 24.717 14.668z" fill="#8bd8bc" data-fill-palette-color="accent"></path><path d="M7.041 42.756c3.89 0 26.403 3.154 26.403 7.042 0 3.889-22.514 7.042-26.403 7.042C3.153 56.84 0 53.687 0 49.798 0 45.91 3.153 42.756 7.041 42.756z" fill="#8bd8bc" data-fill-palette-color="accent"></path><path d="M92.918 57.059c-3.889 0-26.402-3.15-26.402-7.039s22.514-7.041 26.402-7.041c3.89 0 7.042 3.152 7.042 7.041S96.808 57.059 92.918 57.059z" fill="#8bd8bc" data-fill-palette-color="accent"></path></g></svg></g></svg></g></svg></g><defs></defs></svg><rect width="395.52" height="125.79029958191232" fill="none" stroke="none" visibility="hidden"></rect></g></svg></g></svg>